# xmcd CD database file
#
# Track frame offsets:
#	150
#	14261
#	30892
#	45151
#	61492
#	73723
#	86159
#	101123
#	114614
#	125257
#	137467
#	155251
#	167411
#	185137
#	198310
#	210591
#	225123
#	239048
#	250836
#	264623
#	276890
#	289523
#
# Disc length: 4047 seconds
#
# Revision: 0
# Processed by: cddbd v1.5.2PL0 Copyright (c) Steve Scherf et al.
# Submitted via: CDex 1.70beta2
#
DISCID=2c0fcd16
DTITLE=eastman, Eddie - Cdn. - Easy
DYEAR=1900
DGENRE=Country
TTITLE0=Mexico In Our Backyard
TTITLE1=Any Better Than This
TTITLE2=What Lonely People Do
TTITLE3=What I Ain't Got
TTITLE4=To Ease Your Mind
TTITLE5=Fool's Part
TTITLE6=Out of My Mind
TTITLE7=Love Is Such An Easy Word To Say
TTITLE8=I Think I'll Say Goodbye
TTITLE9=Gone Out In Style
TTITLE10=Easy
TTITLE11=Eastbound 401
TTITLE12=Intimate Strangers
TTITLE13=Lost In Your Love
TTITLE14=What You Left
TTITLE15=Sherida
TTITLE16=Just Out of My Reach
TTITLE17=Nobody Quite Like You
TTITLE18=Loving You Needing You
TTITLE19=Then I'll Stop Living You
TTITLE20=Southern Comfort
TTITLE21=Between The Barroom and the Bedroom
EXTD=
EXTT0=
EXTT1=
EXTT2=
EXTT3=
EXTT4=
EXTT5=
EXTT6=
EXTT7=
EXTT8=
EXTT9=
EXTT10=
EXTT11=
EXTT12=
EXTT13=
EXTT14=
EXTT15=
EXTT16=
EXTT17=
EXTT18=
EXTT19=
EXTT20=
EXTT21=
PLAYORDER=
